<svg xmlns="http://www.w3.org/2000/svg" width="512" height="512" viewBox="0 0 512 512"><path d="M 209.5 58.85 C 193.52 64.32, 179.4 77.4, 170.51 94.98 C 157.44 120.81, 154.68 161.86, 163.14 204.5 C 165.82 218.01, 165.81 218, 168.37 218 C 173.95 218, 224.64 203.92, 247.41 196.04 C 250.66 194.92, 253.47 194, 253.66 194 C 253.85 194, 252.69 195.83, 251.06 198.07 C 246.64 204.18, 244.64 211.25, 244.56 221 C 244.53 225.68, 244.84 231.43, 245.27 233.78 L 246.03 238.06 242.13 236.07 C 230.36 230.06, 212.01 231.48, 200.53 239.28 L 196.66 241.91 190.15 235.82 C 175.02 221.67, 155.92 218.49, 138.13 227.15 C 130.11 231.05, 121.45 239.62, 117.55 247.52 C 113.47 255.77, 112.76 270.66, 115.85 282.89 C 120 299.29, 128.82 317.45, 142.86 338.47 C 150.52 349.94, 173.31 380.62, 179.2 387.39 L 182.58 391.28 196.42 374.14 C 204.03 364.71, 210.44 357, 210.67 357 C 210.9 357, 212.8 360.71, 214.88 365.25 C 223.1 383.13, 231.41 411.98, 234.98 435 C 236.13 442.43, 237.4 450.52, 237.8 453 L 238.52 457.5 259.01 457.5 L 279.5 457.5 279.65 438.5 C 280.14 376.77, 284.61 340.53, 295.66 308.5 C 298.13 301.35, 300.4 294.71, 300.69 293.75 C 300.99 292.79, 301.61 292, 302.08 292 C 303.59 292, 316.11 304.28, 323.47 313 C 332.77 324.01, 346.42 342.21, 357.41 358.25 C 362.22 365.26, 366.36 371, 366.61 371 C 367.92 371, 391.66 307.59, 399.56 283 C 412.54 242.56, 412.83 216.47, 400.57 191.5 C 381.94 153.54, 344.94 150.84, 322.01 185.78 C 319.29 189.92, 316.92 193.74, 316.75 194.25 C 316.58 194.77, 314.88 194.29, 312.97 193.19 C 306.74 189.58, 299.67 187.73, 289.81 187.11 L 280.12 186.5 290.7 180 C 312.09 166.87, 323.54 152.64, 324.74 137.71 C 326.13 120.33, 315.19 102.08, 298.5 93.92 C 291.6 90.55, 291.32 90.5, 278.5 90.55 C 268.96 90.59, 264.38 91.04, 261.31 92.24 L 257.11 93.87 255.93 90.19 C 255.28 88.16, 252.96 83.01, 250.76 78.75 C 241.69 61.12, 225.58 53.35, 209.5 58.85 M 263.68 270.32 C 263.11 279, 260.34 289.68, 257.91 292.61 C 257.1 293.59, 257.35 297.98, 258.86 309.22 C 259.98 317.62, 261.93 332.49, 263.18 342.25 C 264.43 352.01, 265.8 360, 266.23 360 C 266.65 360, 267 358.68, 267 357.06 C 267 346.93, 276.5 303.11, 282.06 287.62 L 284.97 279.5 281.73 276.65 C 279.95 275.08, 275.3 270.94, 271.4 267.46 L 264.29 261.14 263.68 270.32 M 234.4 330.1 C 230.6 335.13, 227.63 339.75, 227.78 340.37 C 227.94 340.99, 230.16 347.12, 232.72 354 C 235.28 360.88, 239.77 373.25, 242.71 381.5 L 248.04 396.5 247.48 383.5 C 246.44 358.98, 243.02 322.69, 241.62 321.29 C 241.44 321.11, 238.19 325.07, 234.4 330.1" fill="#006b3f" fill-rule="evenodd"/></svg>
